<svg xmlns="http://www.w3.org/2000/svg" width="40.193" height="39.99" viewBox="0 0 40.193 39.99">
  <g id="Group_73" transform="translate(-678.818 -218.689)">
    <path id="Path_278" d="M697.678,269.4c-2.917-.9-5.7-1.928-8.558-2.6a52.93,52.93,0,0,0-7.136-.958c-2.465-.231-3.158-.866-3.161-3.288q-.01-7.3,0-14.608c0-2.5.91-3.329,3.374-3.089,4.431.431,8.83,1.022,12.976,2.784,2.5,1.063,2.5,1.06,2.5,3.749V269.4Z" transform="translate(0 -11.084)" fill="#676767"/>
    <path id="Path_279" d="M715.907,269.763c0-6.821-.018-13.463.043-20.1a1.678,1.678,0,0,1,.968-1.189c3.15-1.064,6.308-2.126,9.517-2.987a30.623,30.623,0,0,1,4.972-.623c2.38-.23,3.314.606,3.322,2.985q.024,7.38,0,14.758c-.006,2.353-.726,2.9-3.045,3.259-4.062.629-8.1,1.422-12.122,2.288A20.383,20.383,0,0,0,715.907,269.763Z" transform="translate(-15.729 -11.084)" fill="#676767"/>
    <path id="Path_280" d="M708.2,233.709a7.51,7.51,0,1,1,.039-15.019,7.51,7.51,0,0,1-.039,15.019Z" transform="translate(-9.268)" fill="#676767"/>
  </g>
</svg>
