<svg xmlns="http://www.w3.org/2000/svg" width="47.393" height="38.134" viewBox="0 0 47.393 38.134">
  <path id="Path_282" d="M903.909,246.692v-4.639c-.662-.037-1.314-.1-1.966-.1-5.23-.009-10.46.005-15.69-.009-3.108-.009-3.885-.99-3.283-4.042q2.11-10.71,4.21-21.422c.522-2.655,1.081-3.14,3.719-3.142q15.6-.008,31.194,0c2.532,0,3.1.516,3.605,3.035q2.125,10.7,4.273,21.4c.636,3.163-.136,4.159-3.336,4.166-5.844.012-11.689,0-17.655,0v4.7a13.1,13.1,0,0,1,2.989.047,7.1,7.1,0,0,1,3.075,1.419,3.019,3.019,0,0,1,.656,2.507c-.1.421-1.4.788-2.158.8-4.856.071-9.713.047-14.569.031-1.97-.006-2.571-1.02-1.634-2.731a3.841,3.841,0,0,1,3.544-2.02C901.86,246.675,902.838,246.692,903.909,246.692Zm-3.825-9.649H912.8c-.221-2.444-.366-4.74-.69-7.01a1.752,1.752,0,0,0-1.263-1.114q-4.384-.152-8.775,0a1.758,1.758,0,0,0-1.28,1.1C900.464,232.289,900.314,234.583,900.083,237.043Zm1.867-18.825c-.22,2.425-.423,4.661-.63,6.938h10.268c-.23-2.382-.447-4.634-.67-6.938Zm-14.014,18.966c2.645,0,5.112.04,7.575-.047.339-.012.893-.625.942-1.011.294-2.32.471-4.654.71-7.234-2.39,0-4.661-.029-6.93.037-.278.008-.715.481-.786.8C888.916,232.137,888.458,234.56,887.936,237.184Zm27.789-8.308c.244,2.585.412,4.919.729,7.232a1.6,1.6,0,0,0,1.132,1.032c2.4.1,4.805.048,7.389.048-.525-2.625-.977-5.051-1.526-7.455a1.337,1.337,0,0,0-.955-.819C920.286,228.84,918.073,228.876,915.725,228.876Zm-25.359-3.739h7.22l.677-6.875H891.7C891.248,220.584,890.816,222.814,890.367,225.137Zm32.212.041-1.4-6.934h-6.565l.72,6.934Z" transform="translate(-882.781 -213.331)" fill="#676767"/>
</svg>
