<svg xmlns="http://www.w3.org/2000/svg" width="36.531" height="49" viewBox="0 0 36.531 49">
  <path id="Path_281" d="M802.749,239.343c-2.968,0-5.64,0-8.312,0a5.987,5.987,0,0,1-2.286-.071c-1.029-.466-2.368-1.094-2.71-1.986a3.8,3.8,0,0,1,.742-3.217,56.534,56.534,0,0,1,5.25-4.793c6.18-5.412,12.352-10.834,18.578-16.193a5.094,5.094,0,0,1,2.681-1.262c2.383-.187,3.641,2.12,2.58,4.659-2.029,4.856-4.134,9.679-6.2,14.518-.27.631-.493,1.282-.858,2.241,3.615,0,6.989-.055,10.36.018,2.4.052,3.873,2.078,3.042,4.154a5.092,5.092,0,0,1-1.416,1.772q-8.9,7.814-17.841,15.58-2.827,2.467-5.638,4.953c-1.294,1.152-2.719,1.515-4.2.5-1.517-1.043-1.563-2.543-.893-4.116q3.09-7.263,6.2-14.519C802.1,240.945,802.356,240.3,802.749,239.343Z" transform="translate(-789.321 -211.809)" fill="#676767"/>
</svg>
