<svg xmlns="http://www.w3.org/2000/svg" width="45.086" height="57.373" viewBox="0 0 45.086 57.373">
  <g id="Group_74" transform="translate(-1009.667 -194.279)">
    <path id="Path_283" d="M1054.753,242.718c-.422.552-.75,1.4-1.3,1.583a2.32,2.32,0,0,1-1.968-.5c-1.286-1.262-2.4-2.7-3.574-4.075-3.565-4.189-7.155-8.359-10.674-12.587a7.915,7.915,0,0,0-5.6-2.965c-6.519-.655-13.034-1.37-19.531-2.217-.874-.114-1.631-1.123-2.442-1.717.758-.665,1.436-1.771,2.287-1.924,6.294-1.138,12.609-2.192,18.948-3.047a9.059,9.059,0,0,0,6.712-3.962c3.592-5.119,7.347-10.125,11.039-15.173.355-.486.652-1.113,1.138-1.377.583-.317,1.57-.645,1.965-.37a2.557,2.557,0,0,1,.886,2,10.078,10.078,0,0,1-.993,2.742c-2.246,5.509-4.453,11.034-6.769,16.513a7.961,7.961,0,0,0,.271,7.139c2.944,5.853,5.749,11.776,8.6,17.675C1054.077,241.124,1054.357,241.818,1054.753,242.718Zm-15.662-25.791c-2.513.017-3.392,1.029-3.36,2.537a2.414,2.414,0,0,0,2.641,2.481c1.577-.023,2.719-1.023,2.435-2.547C1040.611,218.352,1039.5,217.477,1039.091,216.927Z" transform="translate(0 0)" fill="#676767"/>
    <path id="Path_284" d="M1044.9,254.958c3.048,3.5,5.642,6.412,8.138,9.406a3.936,3.936,0,0,1,.616,2.072c.213,2.309.334,4.626.484,6.853,3.15,1.147,7.454-1.384,9.377,3.6-1.12.115-1.91.265-2.7.267-7.9.017-15.8.037-23.7-.03a7.83,7.83,0,0,1-2.421-.888,9.71,9.71,0,0,1,1.99-2.221,5.866,5.866,0,0,1,2.633-.393c1.342-.056,2.689-.014,4.318-.014C1044.048,267.525,1044.452,261.587,1044.9,254.958Z" transform="translate(-10.527 -25.523)" fill="#676767"/>
  </g>
</svg>
