<svg xmlns="http://www.w3.org/2000/svg" xmlns:xlink="http://www.w3.org/1999/xlink" width="160.115" height="148.851" viewBox="0 0 160.115 148.851">
  <defs>
    <linearGradient id="linear-gradient" x1="-0.001" y1="0.501" x2="1.002" y2="0.501" gradientUnits="objectBoundingBox">
      <stop offset="0" stop-color="#0064af"/>
      <stop offset="1" stop-color="#009ddd"/>
    </linearGradient>
    <linearGradient id="linear-gradient-2" x1="0" y1="0.5" x2="1" y2="0.5" xlink:href="#linear-gradient"/>
    <linearGradient id="linear-gradient-3" x1="0.007" y1="0.501" x2="0.999" y2="0.501" xlink:href="#linear-gradient"/>
  </defs>
  <g id="Group_1" transform="translate(0 0)">
    <path id="Path_1" d="M67.364,316.262c-.175-.156-.435-.4-.786-.736A6.714,6.714,0,0,1,67.364,316.262Z" transform="translate(-10.382 -279.529)" fill="#383a39"/>
    <path id="Path_2" d="M75.3,337.036s11.632,18.888,5.565,29.358-21.007,16.133-21.007,16.133,11.256,1.061,22.919-8.9S79.878,342.983,75.3,337.036Z" transform="translate(-24.699 -233.708)" fill="#009ddd"/>
    <path id="Path_3" d="M79.267,337.914s17.9,12.117,13.8,22.791c0,0,13.385-6.583,4.72-21.461,0,0,3.046,9.359-.288,13.025C97.5,352.269,92.758,343.548,79.267,337.914Z" transform="translate(16.648 -231.838)" fill="#009ddd"/>
    <path id="Path_4" d="M80.675,326.743s39.613,12.464,47.169,20.5C127.844,347.246,120.729,334.8,80.675,326.743Z" transform="translate(19.648 -255.634)" fill="#009ddd"/>
    <path id="Path_5" d="M84.68,320.358S73,322.953,73,328.146c0,1.947.648,5.19,8.436,8.436,0,0-6.642-3.991-5.428-8.649S84.68,320.358,84.68,320.358Z" transform="translate(3.301 -269.236)" fill="#009ddd"/>
    <path id="Path_6" d="M67.364,316.262c-.175-.156-.435-.4-.786-.736A6.714,6.714,0,0,1,67.364,316.262Z" transform="translate(-10.382 -279.529)" fill="url(#linear-gradient)"/>
    <path id="Path_7" d="M161.647,419.846v.034s-.069-.122-.194-.366c-.088-.141-.172-.263-.244-.4a17.667,17.667,0,0,0-1.014-1.556c-.244-.351-.473-.682-.736-1.017-7.509-10.5-19.62-18.393-33.969-21.7a49.887,49.887,0,0,1-15.122-6.2c-.016-.016-.034-.016-.053-.034a37.662,37.662,0,0,1-8.646-7.631c-3.938-4.708-7.926-11.566-4.918-17.886a10.275,10.275,0,0,1,2.47-3.046c1.487-1.38,4.723-3.377,10.323-5.913,3.572-1.628,7.45-3.412,13.388-5.772,0,0,5.565-1.859,2-6.041h-.019a12.407,12.407,0,0,0-2.623-2.31c-8.07-5.687-8.261-5.706-8.261-5.706L88.178,315.016c.7-.4,1.4-.8,2.116-1.208l23.908,17.36c2.432,1.769,4.933,3.378,7.525,4.9a38.263,38.263,0,0,1,7.944,5.81c1.784,1.872,2.661,3.781,1.261,5.284a26.952,26.952,0,0,1-8.909,5.828,28.833,28.833,0,0,0-7.6,4.83c-3.587,3.168-7.193,6.091-6.633,11.081a.033.033,0,0,0,0,.05,8.676,8.676,0,0,0,.194,1.121,4.469,4.469,0,0,0,.332.789,22.147,22.147,0,0,0,13.3,13.882,91.837,91.837,0,0,1,18.881,9.118C151.5,401.156,162.323,410.718,161.647,419.846ZM105.8,340.953l-.069-.072a.94.94,0,0,0-.125-.122c-.175-.156-.435-.4-.786-.736-.019,0-.034-.016-.053-.034-3.309-3.046-14.28-12.565-26.794-17.833a79.819,79.819,0,0,0-29.349,61.937c0,1.784.053,3.534.175,5.284a79.687,79.687,0,0,0,23.89,51.908,76.765,76.765,0,0,0,8.646,7.334c15.225-3.957,17.833-11.55,17.833-11.55,9.572-17.538-8.7-36.839-13.407-41.375a34.686,34.686,0,0,1-3.446-3.866c-2.573-3.362-6.476-9.328-7.86-16.033-1.155-5.669,1.524-10.483,4.166-13.651a20.71,20.71,0,0,1,6.141-5.074l19.708-10.483C107.147,344.418,107.185,342.543,105.8,340.953Zm100.667,24.134a80.064,80.064,0,0,0-77.776-61.061,79.245,79.245,0,0,0-26.916,4.655c20.459,9.679,39.359,25.621,39.359,25.621,16.38,13.213,5.165,17.729,5.165,17.729s-3.85,2.013-9.713,5.443c-6.652,3.885-6.721,7.193-5.55,9.309a5.8,5.8,0,0,0,4.094,2.817l5.988,1.1c2.063.282,4.113.56,6.176.823,24.641,2.363,45.957,13.056,59.12,28.334a.355.355,0,0,1,.053.034l.419,1.349a79.192,79.192,0,0,0,1.853-17.15A80.077,80.077,0,0,0,206.468,365.087Z" transform="translate(-48.625 -304.026)" fill="url(#linear-gradient-2)"/>
    <path id="Path_8" data-name="Path 8" d="M84.864,341.253v.034s-.069-.122-.194-.366A2.149,2.149,0,0,0,84.864,341.253Z" transform="translate(28.158 -225.433)" fill="url(#linear-gradient-3)"/>
  </g>
</svg>
