<svg xmlns="http://www.w3.org/2000/svg" xmlns:xlink="http://www.w3.org/1999/xlink" width="160.18" height="160.158" viewBox="0 0 160.18 160.158">
  <defs>
    <linearGradient id="linear-gradient" y1="0.5" x2="1" y2="0.5" gradientUnits="objectBoundingBox">
      <stop offset="0" stop-color="#69b278"/>
      <stop offset="1" stop-color="#55b3a8"/>
    </linearGradient>
  </defs>
  <g id="Group_23" transform="translate(0 0)">
    <path id="Path_153" d="M183.7,440.5c-.019,0-.019.019-.041.059-.45.919-.922,1.8-1.409,2.684a.276.276,0,0,1-.041.059c-1,1.981-1.922,3.981-2.784,6a80.088,80.088,0,0,1-12.9-119.166A96.044,96.044,0,0,1,183.7,440.5Zm122.185-56.5a79.614,79.614,0,0,0-12.315-42.682,96.079,96.079,0,0,1-55.425,81.99c-.1.041-.216.078-.331.137-.334.156-.647.294-.981.453a96.163,96.163,0,0,0-39.995,34.78,80.151,80.151,0,0,0,109.048-74.678Zm-59.094-35.92a95.523,95.523,0,0,0-10.39-43.467,79.108,79.108,0,0,0-10.606-.7,80.838,80.838,0,0,0-16.412,1.684,95.922,95.922,0,0,1,11.371,108.167A95.489,95.489,0,0,0,246.788,348.074Z" transform="translate(-145.702 -303.904)" fill="url(#linear-gradient)"/>
    <path id="Path_154" d="M182.011,340.482a18.351,18.351,0,0,1-4.719,6.156,17.265,17.265,0,0,1-3.344,2.219,12.248,12.248,0,0,1-4,1.25l-2.375.25,1.344-2.031a51.986,51.986,0,0,0,3.281-5.718,34.779,34.779,0,0,0,2.437-6.312,16.387,16.387,0,0,1-.062,3.5,21.765,21.765,0,0,1-.75,3.437,29.712,29.712,0,0,1-1.594,3.875c.25-.094.5-.219.75-.313a18.207,18.207,0,0,0,3.156-1.719,31.377,31.377,0,0,0,3-2.156C180.136,342.17,181.042,341.295,182.011,340.482Z" transform="translate(-99.227 -235.078)" fill="#6ab279"/>
    <path id="Path_155" d="M153.989,311.283a39.119,39.119,0,0,1,10.4,9.318,65.361,65.361,0,0,1,7.528,11.853,75.8,75.8,0,0,1,4.934,13.106c.662,2.234,1.056,4.543,1.547,6.809.3,2.312.647,4.609.825,6.922-1.572-4.381-3.059-8.709-4.687-12.968-1.669-4.243-3.4-8.437-5.419-12.487a113.034,113.034,0,0,0-6.687-11.8A72.684,72.684,0,0,0,153.989,311.283Z" transform="translate(-128.093 -288.225)" fill="#6ab279"/>
    <path id="Path_156" d="M177.583,357.3c4.925-4.234,9.909-8.218,14.531-12.577a79.393,79.393,0,0,0,6.628-6.784,36.872,36.872,0,0,0,5.353-7.865,22.268,22.268,0,0,1-3.9,8.978,44.131,44.131,0,0,1-6.481,7.384A61.32,61.32,0,0,1,177.583,357.3Z" transform="translate(-77.96 -248.301)" fill="#6ab279"/>
    <path id="Path_157" d="M176.366,304.563a16.6,16.6,0,0,1,4.984,6.106,29.382,29.382,0,0,1,2.559,7.509,37.979,37.979,0,0,1,.712,7.853c-.031,1.309-.147,2.615-.259,3.915-.244,1.294-.4,2.584-.716,3.856-.322-2.6-.581-5.153-.853-7.681-.359-2.515-.625-5.028-1.181-7.478a52.3,52.3,0,0,0-1.934-7.25A30.213,30.213,0,0,0,176.366,304.563Z" transform="translate(-80.546 -302.504)" fill="#6ab279"/>
  </g>
</svg>
