<svg xmlns="http://www.w3.org/2000/svg" xmlns:xlink="http://www.w3.org/1999/xlink" width="160.692" height="160.692" viewBox="0 0 160.692 160.692">
  <defs>
    <linearGradient id="linear-gradient" y1="0.5" x2="1" y2="0.5" gradientUnits="objectBoundingBox">
      <stop offset="0" stop-color="#fadf09"/>
      <stop offset="1" stop-color="#e3b500"/>
    </linearGradient>
  </defs>
  <g id="Group_28" transform="translate(0 0)">
    <path id="Path_198" d="M287.715,425.525a87.245,87.245,0,0,1-5.884,11.137,88.739,88.739,0,0,1-9.578,12.715A80.317,80.317,0,0,1,266.41,324.4c15.8,16.509,27.624,36.53,28.749,61.172A88.638,88.638,0,0,1,287.715,425.525Zm31.967-121.341a80,80,0,0,0-40.5,10.94c.119.059.237.138.356.2a88.433,88.433,0,0,1,20.477,14.315q2.306,2.133,4.44,4.444a88.334,88.334,0,0,1,12.678,17.4,89.189,89.189,0,0,1,5.884-21.621c.791-1.934,1.659-3.85,2.606-5.706a87.1,87.1,0,0,1,11.809-17.99A79.664,79.664,0,0,0,319.682,304.184ZM347.268,431.29a87.469,87.469,0,0,1-19.705-24.208,87.428,87.428,0,0,1-3.1,14.037,89.937,89.937,0,0,1-26.48,40.8A80.479,80.479,0,0,0,371.3,446.08,89.117,89.117,0,0,1,347.268,431.29Zm6.222-119.641c-7.722,19.843-10.724,41.27-3.616,63.128a88.8,88.8,0,0,0,21.03,34.751,85.732,85.732,0,0,0,9.437,8.353A88.417,88.417,0,0,0,389.6,424.1,80.333,80.333,0,0,0,353.49,311.649Z" transform="translate(-239.336 -304.184)" fill="url(#linear-gradient)"/>
    <path id="Path_199" d="M251.508,313.108c5.4,3.312,9.531,8.428,12.631,13.934a44.147,44.147,0,0,1,3.647,8.768c.956,3.016,4.334,15.99,4.334,25.186-1.625-10.987-4.847-21.749-6.059-24.574a83.871,83.871,0,0,0-3.975-8.253,78.825,78.825,0,0,0-4.837-7.778A77.343,77.343,0,0,0,251.508,313.108Z" transform="translate(-213.472 -285.222)" fill="#f8de0f"/>
    <path id="Path_200" d="M273.37,317.7c-.875,4.5-1.906,8.781-2.687,13.062l-.687,3.781-1.531-3.469a50.284,50.284,0,0,0-6.094-10.281,17.531,17.531,0,0,1,4.844,4,17.757,17.757,0,0,1,1.844,2.5,33.157,33.157,0,0,1,1.125-3.531A26.768,26.768,0,0,1,273.37,317.7Z" transform="translate(-190.392 -275.471)" fill="#f8de0f"/>
    <path id="Path_201" d="M274.755,329.831c2.284,4.022,4.544,8.015,6.9,11.946,2.384,3.912,4.794,7.793,7.4,11.528a87.653,87.653,0,0,0,8.447,10.643,39.5,39.5,0,0,0,5,4.559l2.812,1.912c1.031.45,2.066.937,3.119,1.447-4.678-.662-8.731-3.54-12.184-6.625a59.478,59.478,0,0,1-9.118-10.6,98.187,98.187,0,0,1-7.05-12A92.017,92.017,0,0,1,274.755,329.831Z" transform="translate(-164.076 -249.688)" fill="#f8de0f"/>
    <path id="Path_202" d="M280.79,343.547a62.19,62.19,0,0,1-8.943,17.9,50.206,50.206,0,0,1-6.653,7.6,28.526,28.526,0,0,1-8.437,5.493,69.136,69.136,0,0,0,13.19-14.456c1.94-2.628,3.706-5.393,5.512-8.146Z" transform="translate(-202.319 -220.544)" fill="#f8de0f"/>
  </g>
</svg>
